<svg xmlns:dc="http://purl.org/dc/elements/1.1/" xmlns:cc="http://creativecommons.org/ns#" xmlns:rdf="http://www.w3.org/1999/02/22-rdf-syntax-ns#" xmlns:svg="http://www.w3.org/2000/svg" xmlns="http://www.w3.org/2000/svg" height="111.69259643554688" width="332.5285949707031" xml:space="preserve" version="1.1" style=""><rect id="backgroundrect" width="100%" height="100%" x="0" y="0" fill="none" stroke="none"/><metadata id="metadata8"><rdf:RDF><cc:Work rdf:about=""><dc:format>image/svg+xml</dc:format><dc:type rdf:resource="http://purl.org/dc/dcmitype/StillImage"/><dc:title/></cc:Work></rdf:RDF></metadata><defs id="defs6"><clipPath id="clipPath16" clipPathUnits="userSpaceOnUse"><path id="path18" d="m 0,595.28 841.89,0 L 841.89,0 0,0 0,595.28 Z"/></clipPath><clipPath id="clipPath124" clipPathUnits="userSpaceOnUse"><path id="path126" d="m 348.632,276.547 c 0,-20.285 16.445,-36.729 36.73,-36.729 l 0,0 c 20.285,0 36.731,16.444 36.731,36.729 l 0,0 c 0,20.286 -16.446,36.729 -36.731,36.729 l 0,0 c -20.285,0 -36.73,-16.443 -36.73,-36.729"/></clipPath><clipPath id="clipPath180" clipPathUnits="userSpaceOnUse"><path id="path182" d="m 0,595.28 841.89,0 L 841.89,0 0,0 0,595.28 Z"/></clipPath></defs><g class="currentLayer" style=""><title>Layer 1</title><polyline fill="none" stroke="#000000" stroke-width="0" stroke-dashoffset="" fill-rule="nonzero" marker-start="" marker-mid="" marker-end="" id="svg_1" points="-122.3071463569335,163.94152421164836 -121.35476536130201,163.94152421164836 -120.40238436567054,163.94152421164836 -120.40238436567054,163.94152421164836 -117.54524137877607,163.94152421164836 -110.87857440935562,162.03676222038536 -105.16428843556668,162.03676222038536 -102.3071454486722,162.03676222038536 -101.35476445304073,162.03676222038536 -100.40238345740923,162.03676222038536 -100.40238345740923,162.03676222038536 -99.45000246177776,162.03676222038536 -98.49762146614626,162.03676222038536 -97.54524047051476,162.03676222038536 -95.64047847925178,162.03676222038536 -92.78333549235731,162.03676222038536 -89.92619250546284,162.03676222038536 -85.16428752730539,162.98914321601683 -82.30714454041092,162.98914321601683 -81.35476354477942,162.98914321601683 -79.45000155351644,162.98914321601683 -78.49762055788497,162.98914321601683 -76.59285856662197,162.98914321601683 -75.6404775709905,162.98914321601683 -74.688096575359,162.98914321601683 -72.78333458409602,162.98914321601683 " style="color: rgb(0, 0, 0);"/><g class=""><path id="path22" style="fill:#e2c224;fill-opacity:1;fill-rule:nonzero;stroke:none" d="m138.48446015008187,111.24815587319112 c-1.2509875690937045,0 -2.3000532114505767,-0.9457837373018266 -2.4277050042152406,-2.1932898938655856 l-8.138382024168967,-80.6016628932953 l-9.64003129541874,58.17440337538719 c-0.19611957252025616,1.1825197893381119 -1.212692031264305,2.0470705676078795 -2.42074217915535,2.0389472717046737 c-1.1987663811445235,-0.006962825059890756 -2.214178369045258,-0.8842787826061252 -2.395211820602417,-2.0691195136308673 l-5.136243952512742,-33.50511418819428 l-2.6029361015558243,11.633720204234123 c-0.24950123131275187,1.1152124804258348 -1.2370619189739227,1.9066535955667496 -2.3789652287960052,1.9078140664100651 l-39.72871932089329,0.02320941686630251 l-0.0011604708433151254,0 c-1.3461461782455446,0 -2.4381492418050765,-1.090842592716217 -2.4381492418050765,-2.4381492418050765 c-0.0011604708433151252,-1.3461461782455446 1.089682121872902,-2.4393097126483916 2.4358283001184464,-2.4393097126483916 l37.77796783328056,-0.02204894602298739 l5.005110747218131,-22.369235975742342 c0.2553035855293274,-1.1442242515087127 1.2858016943931583,-1.9484305459260942 2.462519129514694,-1.9031721830368045 c1.1720755517482757,0.03945600867271425 2.1491920018196105,0.9086486703157428 2.3279045116901402,2.066798571944237 l4.781139874458313,31.192295797467235 l10.130910462141038,-61.15101108849049 c0.19960098505020155,-1.2045687353610994 1.2718760442733765,-2.048231038451195 2.4845680755376818,-2.037786800861359 c1.2219757980108263,0.04061647951602939 2.225783077478409,0.9759559792280197 2.347632516026497,2.19212942302227 l7.4444204598665245,73.70730561316013 l1.9147768914699554,-20.74341632425785 c0.11488661348819744,-1.2544689816236496 1.1674336683750153,-2.2153388398885725 2.4277050042152406,-2.2153388398885725 l60.04276143312454,0 c1.3473066490888599,0 2.4381492418050765,1.0920030635595321 2.4381492418050765,2.4381492418050765 c0,1.3473066490888599 -1.090842592716217,2.4393097126483916 -2.4381492418050765,2.4393097126483916 l-57.81929929733276,0 l-4.026833826303482,43.660394538044926 c-0.1160470843315125,1.249827098250389 -1.1616313141584393,2.208376014828682 -2.4184212374687193,2.214178369045258 l-0.010444237589836133,0 z" stroke-width="0" class="" transform="rotate(-13.895407676696777 133.18690490722653,59.401752471923864) "/><g id="g24" stroke-width="0" class="" transform="rotate(149.29270935058594 16.77192497253418,53.128849029541016) "><path d="m6.630673626785267,68.69822331390381 c-0.505,0 -0.9412500000000001,-0.18500000000000008 -1.3125,-0.5562500000000001 c-0.3712500000000002,-0.3712500000000002 -0.5562500000000001,-0.8375000000000001 -0.5562500000000001,-1.40125 l0,-27.22375 c0,-0.5625 0.18500000000000008,-1.0375 0.5562500000000001,-1.4212500000000001 c0.3712500000000002,-0.3862500000000002 0.8075000000000001,-0.5800000000000003 1.3125,-0.5800000000000003 l6.00375,0 c0.50375,0 0.9412500000000001,0.1937500000000001 1.31375,0.5800000000000003 c0.36875,0.38375000000000015 0.555,0.8587500000000005 0.555,1.4212500000000001 l0,19.92875 l12.2325,0 c0.5625,0 1.0450000000000002,0.17875000000000008 1.44625,0.5337500000000003 c0.39875000000000016,0.35625000000000007 0.6000000000000003,0.8000000000000004 0.6000000000000003,1.335 l0,5.6025 c0,0.505 -0.20125000000000004,0.9350000000000004 -0.6000000000000003,1.2912499999999998 c-0.4012500000000001,0.35500000000000015 -0.8837500000000003,0.5337500000000003 -1.44625,0.5337500000000003 l-18.95,0 L6.630673626785267,68.69822331390381 z" style="fill:#121f4f;fill-opacity:1;fill-rule:nonzero;stroke:none" id="path26" stroke-width="0"/></g><g id="g28" stroke-width="0" class="" transform="rotate(11.610785484313965 31.481864929199233,23.694042205810536) "><path d="m26.49999080074309,37.261542043304445 l0,-27.13375 c0,-0.5625 0.17750000000000007,-1.0450000000000002 0.5337500000000003,-1.4450000000000003 c0.35625000000000007,-0.4025000000000002 0.8300000000000004,-0.6025 1.42375,-0.6025 l6.09375,0 c0.5337500000000003,0 0.9862500000000001,0.20000000000000004 1.35625,0.6025 c0.37000000000000016,0.4000000000000002 0.5562500000000001,0.8825000000000003 0.5562500000000001,1.4450000000000003 L36.463740800743096,37.261542043304445 C36.463740800743096,37.88404204330445 36.277490800743095,38.38154204330444 35.90749080074309,38.75029204330445 C35.53749080074309,39.121542043304444 35.08499080074309,39.307792043304445 34.55124080074309,39.307792043304445 l-6.09375,0 c-0.5937500000000002,0 -1.0675000000000001,-0.18625000000000008 -1.42375,-0.5575000000000001 C26.67749080074309,38.38154204330444 26.49999080074309,37.88404204330445 26.49999080074309,37.261542043304445 " style="fill:#121f4f;fill-opacity:1;fill-rule:nonzero;stroke:none" id="path30" stroke-width="0"/></g><g id="g32" stroke-width="0" class="" transform="rotate(42.02376937866211 58.180377960205085,33.32997894287109) "><path d="M67.51073310745238,23.683254918670656 L67.51073310745238,27.687004918670656 C67.51073310745238,28.219504918670655 67.32573310745238,28.695754918670655 66.95448310745238,29.110754918670658 C66.58323310745239,29.525754918670657 66.16073310745239,29.733254918670657 65.68823310745238,29.733254918670657 l-12.989999999999998,0 l0,3.73625 l12.364999999999998,0 c0.47500000000000014,0 0.8912500000000002,0.17875000000000005 1.24625,0.535 c0.35625000000000007,0.3525000000000001 0.535,0.8287500000000003 0.535,1.4212500000000001 l0,4.00375 c0,0.5337500000000002 -0.17875000000000005,1.00875 -0.535,1.4224999999999999 c-0.3550000000000001,0.4162500000000001 -0.7712500000000001,0.6237500000000001 -1.24625,0.6237500000000001 l-12.364999999999998,0 l0,9.030000000000001 c0,0.5337500000000002 -0.19250000000000006,1.00875 -0.5775,1.42375 c-0.38625000000000015,0.41500000000000015 -0.8162500000000001,0.6225 -1.29,0.6225 l-5.826250000000001,0 c-0.505,0 -0.9425000000000001,-0.20750000000000007 -1.31375,-0.6225 c-0.37125000000000014,-0.41500000000000015 -0.555,-0.8900000000000002 -0.555,-1.42375 l0,-22.818749999999998 l0,-4.00375 l0,-0.04500000000000002 c0,-0.56125 0.17875000000000005,-1.0225 0.5337500000000002,-1.3800000000000001 c0.3550000000000001,-0.35375 0.8000000000000003,-0.53125 1.335,-0.53125 l20.68375,0 c0.47250000000000014,0 0.8950000000000002,0.18500000000000005 1.2662499999999999,0.5562500000000001 C67.32573310745238,22.654504918670657 67.51073310745238,23.120754918670656 67.51073310745238,23.683254918670656 " style="fill:#121f4f;fill-opacity:1;fill-rule:nonzero;stroke:none" id="path34" stroke-width="0"/></g><g id="g36" stroke-width="0" class="" transform="rotate(-27.666828155517578 89.97687530517578,28.50082206726074) "><path d="m87.30750439537047,20.805195054626466 l0,3.6037500000000002 l12.54375,0 c0.47375000000000006,0 0.8962500000000003,0.18625000000000008 1.2675,0.555 c0.37000000000000016,0.3712500000000002 0.5562500000000001,0.8375000000000001 0.5562500000000001,1.4025 l0,3.8687500000000004 c0,0.50375 -0.18625000000000008,0.9575000000000001 -0.5562500000000001,1.3575000000000004 c-0.3712500000000002,0.39875000000000016 -0.7937500000000004,0.6000000000000003 -1.2675,0.6000000000000003 l-12.54375,0 l0,3.9587499999999998 l13.1675,0 c0.5025000000000001,0 0.9400000000000004,0.18625000000000008 1.3112499999999998,0.5575000000000001 c0.37000000000000016,0.37000000000000016 0.5562500000000001,0.8500000000000004 0.5562500000000001,1.4450000000000003 l0,3.8237500000000004 c0,0.5337500000000003 -0.18625000000000008,1 -0.5562500000000001,1.4025 c-0.3712500000000002,0.4000000000000002 -0.8087500000000004,0.6000000000000003 -1.3112499999999998,0.6000000000000003 l-20.99625,0 c-0.50375,0 -0.9412500000000001,-0.20000000000000004 -1.3112499999999998,-0.6000000000000003 c-0.3712500000000002,-0.4025000000000002 -0.5562500000000001,-0.8687500000000006 -0.5562500000000001,-1.4025 l0,-0.13375 l0,-3.6900000000000004 l0,-19.30375 l0,-3.87125 c0,-0.5625 0.18500000000000008,-1.03 0.5562500000000001,-1.4025 c0.37000000000000016,-0.37000000000000016 0.8075000000000001,-0.555 1.3112499999999998,-0.555 l20.99625,0 c0.5025000000000001,0 0.9400000000000004,0.18500000000000008 1.3112499999999998,0.555 c0.37000000000000016,0.37250000000000016 0.5562500000000001,0.8400000000000004 0.5562500000000001,1.4025 l0,3.87125 C102.34250439537047,19.353945054626465 102.15000439537047,19.803945054626467 101.76375439537047,20.206445054626467 C101.37875439537046,20.606445054626462 100.94875439537047,20.805195054626466 100.47500439537048,20.805195054626466 L87.30750439537047,20.805195054626466 z" style="fill:#121f4f;fill-opacity:1;fill-rule:nonzero;stroke:none" id="path38" stroke-width="0"/></g><g id="g40" stroke-width="0" class="" transform="rotate(-57.332576751708984 174.50711059570312,90.44801330566405) "><path d="m157.87148902786254,90.44738455734253 c0,-3.025 0.71125,-5.789999999999999 2.13625,-8.29625 c1.4212500000000001,-2.505 3.35,-4.47625 5.78125,-5.916250000000001 c2.43125,-1.4375 5.071250000000001,-2.1550000000000002 7.9174999999999995,-2.1550000000000002 c0.5625,0 0.99375,0.015000000000000006 1.29,0.04250000000000002 c1.7200000000000002,0.12000000000000005 3.0549999999999997,0.31125 4.0024999999999995,0.5787500000000001 l0.22375000000000006,0.04375000000000002 c0.3262500000000001,0.031250000000000014 0.5775,0.15000000000000005 0.7562500000000002,0.3575000000000001 c0.17750000000000005,0.20750000000000007 0.26625000000000004,0.47500000000000014 0.26625000000000004,0.8000000000000003 c0,0.2975000000000001 -0.05875000000000002,0.5775 -0.17875000000000005,0.8450000000000003 L178.24398902786254,80.88488455734253 C177.76898902786255,82.10113455734253 177.05898902786254,82.70863455734253 176.10898902786255,82.70863455734253 C173.67773902786254,82.70863455734253 171.71148902786254,83.21238455734253 170.21523902786254,84.22238455734254 C168.71898902786253,85.22863455734253 167.74648902786254,86.72613455734253 167.30023902786255,88.71363455734253 C167.15273902786254,89.39488455734254 167.07898902786255,90.00363455734254 167.07898902786255,90.53738455734253 c0,1.57125 0.4362500000000002,2.97875 1.3125,4.225 c0.8737500000000004,1.24375 2.20125,2.09125 3.98125,2.535 c0.9475000000000001,0.17750000000000005 1.7925000000000002,0.26625000000000004 2.535,0.26625000000000004 c1.8675000000000002,0 3.3575,-0.45125000000000004 4.47,-1.35625 c1.1137500000000002,-0.90375 1.83125,-2.05125 2.15875,-3.44625 l-2.4925,0 c-0.47375000000000006,0 -0.8600000000000003,-0.15625000000000003 -1.155,-0.46750000000000014 c-0.29875,-0.31125 -0.4475000000000001,-0.7037500000000002 -0.4475000000000001,-1.17875 l0,-5.8275 c0,-0.4437500000000001 0.15625000000000003,-0.8287500000000003 0.46875000000000006,-1.155 c0.31125,-0.3262500000000001 0.6887500000000003,-0.49000000000000016 1.13375,-0.49000000000000016 l10.36375,0 c0.505,0 0.9200000000000003,0.15500000000000005 1.24625,0.46625000000000005 c0.32500000000000007,0.31250000000000006 0.48875000000000013,0.7050000000000002 0.48875000000000013,1.17875 l-0.08750000000000004,3.2025000000000006 c-0.031250000000000014,0.35625000000000007 -0.06750000000000003,0.9874999999999999 -0.11250000000000004,1.8912499999999999 c-0.04375000000000002,0.90375 -0.11125000000000004,1.7425000000000002 -0.20000000000000004,2.5124999999999997 c-0.26625000000000004,2.6100000000000003 -1.1725,4.975 -2.7125,7.09625 c-1.5425,2.1187500000000004 -3.5,3.7874999999999996 -5.87125,5.00375 c-2.3737500000000002,1.2137499999999999 -4.865,1.8225 -7.47375,1.8225 c-2.90625,0 -5.64875,-0.7337500000000002 -8.22875,-2.20125 c-2.58,-1.46875 -4.65625,-3.46125 -6.22625,-5.9825 C158.65648902786253,96.11238455734254 157.87148902786254,93.38363455734253 157.87148902786254,90.44738455734253 " style="fill:#121f4f;fill-opacity:1;fill-rule:nonzero;stroke:none" id="path42" stroke-width="0"/></g><g id="g44" stroke-width="0" class="" transform="rotate(-171.76803588867188 212.58924865722653,86.63796997070311) "><path d="M213.05674574745177,88.95110269508362 L215.94799574745178,88.95110269508362 L212.43299574745177,78.49860269508362 L208.96424574745177,88.95110269508362 L213.05674574745177,88.95110269508362 zm-17.08125,11.476249999999999 c0,-0.50375 0.08250000000000009,-1.00125 0.24375000000000016,-1.49125 c0.16375000000000015,-0.48625000000000007 0.26,-0.7625000000000006 0.29125,-0.8225000000000002 l9.875,-25.042499999999997 c0.26625000000000004,-0.6212500000000005 0.6575000000000004,-1.1037500000000002 1.1775,-1.44375 c0.52,-0.3412500000000003 1.135,-0.5275000000000001 1.8462500000000004,-0.5575000000000001 l3.6475,0 l2.7575000000000003,0 c0.7712500000000001,0.030000000000000034 1.40875,0.23875000000000016 1.9125,0.6212500000000005 c0.505,0.38750000000000034 0.8462500000000006,0.8462500000000006 1.0237500000000002,1.3800000000000001 L228.71424574745177,98.11360269508361 c0.030000000000000034,0.15000000000000013 0.11875000000000012,0.45250000000000007 0.26625000000000004,0.9125000000000001 c0.14875000000000013,0.46125000000000005 0.22250000000000017,0.8975000000000005 0.22250000000000017,1.3125 c0,1.0675000000000001 -0.5937500000000004,1.6900000000000008 -1.77875,1.8675000000000002 l-6.09375,0 c-0.6237500000000006,0 -1.15125,-0.11000000000000008 -1.5812500000000003,-0.3337500000000002 c-0.4275000000000003,-0.22125000000000014 -0.7037500000000005,-0.54 -0.8225000000000002,-0.9550000000000006 l-1.3775000000000004,-4.44875 l-9.918750000000001,0 l-1.3787500000000001,4.44875 c-0.12000000000000006,0.4150000000000003 -0.3862500000000003,0.7337500000000007 -0.8012500000000001,0.9550000000000006 c-0.4162500000000001,0.22375000000000017 -0.9337500000000005,0.3337500000000002 -1.5575,0.3337500000000002 l-6.18125,0 c-1.1575,-0.17750000000000013 -1.73625,-0.7700000000000001 -1.73625,-1.77875 " style="fill:#121f4f;fill-opacity:1;fill-rule:nonzero;stroke:none" id="path46" stroke-width="0"/></g><g id="g48" stroke-width="0" class="" transform="rotate(-35.90190887451172 258.62268066406256,72.35250854492188) "><path d="m239.96392891777037,86.31939216575623 l0,-27.978749999999998 c0,-0.4162500000000001 0.15375000000000014,-0.7787500000000006 0.46625000000000005,-1.08875 c0.31125,-0.3125000000000002 0.688750000000001,-0.4675000000000003 1.13375,-0.4675000000000003 l6.8950000000000005,0 c0.29625,0 0.6062500000000005,0.06625000000000007 0.9337500000000005,0.20000000000000004 c0.32625000000000026,0.13375 0.5462500000000001,0.27375000000000005 0.6662500000000005,0.4212500000000001 l8.27375,9.07625 l8.675,-9.030000000000001 c0.35625000000000007,-0.3250000000000003 0.7475,-0.52 1.17875,-0.5800000000000005 c0.4300000000000003,-0.05750000000000005 0.9400000000000006,-0.0875000000000001 1.5350000000000001,-0.0875000000000001 l6.0024999999999995,0 c0.4162500000000001,0 0.7787500000000006,0.15500000000000014 1.09,0.4675000000000003 c0.31125,0.3100000000000003 0.4675000000000003,0.6725000000000005 0.4675000000000003,1.08875 L277.28142891777037,86.31939216575623 c0,0.44375000000000026 -0.14875000000000013,0.8225000000000002 -0.44500000000000034,1.135 c-0.29500000000000026,0.31125 -0.6662500000000005,0.46625000000000005 -1.1125000000000003,0.46625000000000005 l-5.96,0 c-0.44500000000000034,0 -0.8375000000000001,-0.15500000000000014 -1.1775,-0.46625000000000005 c-0.3412500000000003,-0.3125000000000002 -0.5125000000000001,-0.6912500000000007 -0.5125000000000001,-1.135 l0,-16.37 l-7.16,9.075 C260.32017891777036,79.82564216575622 259.56392891777034,80.22564216575623 258.64267891777035,80.22564216575623 C258.20017891777036,80.22564216575623 257.77767891777034,80.12939216575623 257.37642891777034,79.93689216575623 C256.97642891777036,79.74439216575622 256.65767891777034,79.48314216575622 256.41892891777036,79.15814216575623 L249.08142891777038,69.94939216575622 L249.12642891777037,86.31939216575623 C249.12642891777037,86.76314216575622 248.97642891777036,87.14189216575623 248.68017891777038,87.45439216575623 C248.38392891777036,87.76564216575623 248.0126789177704,87.92064216575622 247.56892891777036,87.92064216575622 l-6.005000000000001,0 c-0.44500000000000034,0 -0.8225000000000002,-0.16375000000000015 -1.13375,-0.4900000000000003 C240.11767891777038,87.10564216575622 239.96392891777037,86.73439216575623 239.96392891777037,86.31939216575623 " style="fill:#121f4f;fill-opacity:1;fill-rule:nonzero;stroke:none" id="path50" stroke-width="0"/></g><g id="g52" stroke-width="0" class="" transform="rotate(95.972412109375 302.915283203125,82.91706848144527) "><path d="m300.24651382339476,75.22332592926026 l0,3.6025 l12.54375,0 c0.47250000000000025,0 0.8962500000000004,0.1850000000000001 1.2675,0.5562500000000001 c0.3700000000000002,0.37125000000000025 0.5562500000000001,0.8375000000000001 0.5562500000000001,1.4000000000000001 l0,3.87125 c0,0.50375 -0.1862500000000001,0.9550000000000005 -0.5562500000000001,1.355 c-0.37125000000000025,0.4012500000000001 -0.7950000000000005,0.6012500000000004 -1.2675,0.6012500000000004 l-12.54375,0 l0,3.9587499999999998 l13.16625,0 c0.50375,0 0.9412500000000001,0.1862500000000001 1.3112499999999998,0.5562500000000001 c0.37125000000000025,0.37125000000000025 0.5562500000000001,0.8525000000000006 0.5562500000000001,1.44625 l0,3.8237500000000004 c0,0.535 -0.1850000000000001,1.00125 -0.5562500000000001,1.4025 c-0.3700000000000002,0.40000000000000024 -0.8075000000000001,0.6000000000000004 -1.3112499999999998,0.6000000000000004 l-20.99625,0 c-0.50375,0 -0.9412500000000001,-0.20000000000000004 -1.3112499999999998,-0.6000000000000004 c-0.37125000000000025,-0.4012500000000001 -0.555,-0.8675000000000005 -0.555,-1.4025 l0,-0.13375 l0,-3.6900000000000004 l0,-19.305 l0,-3.87 c0,-0.5637500000000003 0.1837500000000001,-1.03 0.555,-1.40125 c0.3700000000000002,-0.37125000000000025 0.8075000000000001,-0.5575000000000001 1.3112499999999998,-0.5575000000000001 l20.99625,0 c0.50375,0 0.9412500000000001,0.1862500000000001 1.3112499999999998,0.5575000000000001 c0.37125000000000025,0.37125000000000025 0.5562500000000001,0.8375000000000001 0.5562500000000001,1.40125 l0,3.87 C315.28026382339476,73.76957592926026 315.08776382339477,74.22207592926026 314.7027638233948,74.62207592926026 C314.31651382339476,75.02207592926025 313.88651382339475,75.22332592926026 313.41276382339476,75.22332592926026 L300.24651382339476,75.22332592926026 z" style="fill:#121f4f;fill-opacity:1;fill-rule:nonzero;stroke:none" id="path54" stroke-width="0"/></g><g id="g56" stroke-width="0" class="" transform="rotate(-144.64334106445312 310.4273681640625,43.78211975097657) "><path d="m307.9299840725708,42.757832250213625 c1.36375,0 2.61625,-0.24375000000000013 3.75875,-0.7350000000000004 c1.1400000000000001,-0.48875000000000024 1.7125000000000001,-1.6212500000000003 1.7125000000000001,-3.4025 c0,-1.24375 -0.3787500000000002,-2.19125 -1.135,-2.8462500000000004 C311.5099840725708,35.12408225021362 310.4199840725708,34.79533225021362 308.9974840725708,34.79533225021362 l-3.6475,0 l0,0.4450000000000003 l0,7.5175 l0.31125,0 l0.13375,0 L307.9299840725708,42.757832250213625 zm6.626250000000001,13.923749999999998 c-0.3250000000000002,-2.0175 -1,-3.4175 -2.0225,-4.205 c-1.0237500000000002,-0.7837500000000005 -2.29,-1.2525 -3.8024999999999998,-1.40125 c-0.20875000000000013,-0.027500000000000028 -0.46125000000000005,-0.04375000000000004 -0.7587500000000007,-0.04375000000000004 c-0.29375,0 -0.5475000000000001,0.030000000000000027 -0.7537500000000007,0.08875000000000008 l-0.04500000000000004,0.04500000000000004 l0,5.69125 c0,0.56625 -0.05125000000000004,1.01875 -0.1550000000000001,1.3587500000000001 c-0.10625000000000002,0.3412500000000002 -0.3875000000000003,0.6225 -0.8462500000000005,0.8450000000000005 c-0.46000000000000024,0.22375000000000014 -1.17875,0.33375000000000016 -2.1574999999999998,0.33375000000000016 l-4.13625,0 c-0.9200000000000005,0.02875000000000002 -1.6462500000000002,-0.14125000000000001 -2.1812500000000004,-0.51125 c-0.5325000000000001,-0.3700000000000002 -0.8000000000000005,-0.8825000000000004 -0.8000000000000005,-1.5350000000000001 l0.04500000000000004,-12.010000000000002 l0,-15.4775 c0,-0.4462500000000002 0.22250000000000014,-0.8387500000000006 0.6662500000000003,-1.1800000000000002 c0.4462500000000002,-0.3412500000000002 0.97875,-0.5125000000000001 1.6025,-0.5125000000000001 l10.0975,0 C313.7562340725708,28.13908225021362 317.0474840725708,28.88658225021362 319.1824840725708,30.415332250213623 C321.3187340725708,31.942832250213627 322.4749840725708,34.33783225021362 322.6524840725708,37.59783225021363 C322.6812340725708,37.89408225021363 322.6899840725708,38.12408225021362 322.6749840725708,38.289082250213625 C322.6587340725708,38.45158225021362 322.6524840725708,38.59283225021362 322.6524840725708,38.710332250213625 l0,0.9337500000000004 C322.5024840725708,41.36408225021363 322.0524840725708,42.72908225021362 321.2949840725708,43.73658225021363 C320.5412340725708,44.74408225021362 319.5387340725708,45.680332250213624 318.29373407257077,46.539082250213625 l0.04500000000000004,0.04500000000000004 c1.4525000000000001,0.71125 2.6075,1.7337500000000001 3.46875,3.07 c0.8600000000000005,1.3325 1.4450000000000003,2.7275 1.7575000000000003,4.17875 c0.3100000000000002,1.4537499999999999 0.4362500000000003,2.75875 0.3787500000000002,3.915 c0,0.505 -0.1787500000000001,0.9062500000000001 -0.535,1.2012500000000002 c-0.35625000000000007,0.29625 -0.8612500000000005,0.4450000000000003 -1.5125,0.4450000000000003 l-5.4275,0 c-0.7712500000000001,0 -1.2675,-0.19375000000000014 -1.4874999999999998,-0.5775 c-0.22500000000000014,-0.3875000000000003 -0.3425000000000003,-0.7937500000000005 -0.3575000000000002,-1.225 c-0.015000000000000012,-0.42875000000000024 -0.03750000000000001,-0.7350000000000004 -0.06750000000000007,-0.9100000000000001 " style="fill:#121f4f;fill-opacity:1;fill-rule:nonzero;stroke:none" id="path58" stroke-width="0"/></g><polyline fill="none" stroke="#000000" stroke-width="0" stroke-dashoffset="" fill-rule="nonzero" marker-start="" marker-mid="" marker-end="" id="svg_2" points="9.121431040212144,95.37009252618105 9.121431040212144,95.37009252618105 10.073812035843616,95.37009252618105 10.073812035843616,95.37009252618105 11.026193031475145,95.37009252618105 11.978574027106617,95.37009252618105 13.883336018369619,95.37009252618105 14.83571701400109,94.41771153054952 15.788098009632563,94.41771153054952 15.788098009632563,94.41771153054952 16.740479005264092,94.41771153054952 16.740479005264092,94.41771153054952 17.692860000895564,94.41771153054952 17.692860000895564,94.41771153054952 18.645240996527036,94.41771153054952 19.597621992158565,94.41771153054952 " style="color: rgb(0, 0, 0);" class=""/><rect fill="none" stroke="#000000" stroke-width="0" stroke-dashoffset="" fill-rule="nonzero" id="svg_3" x="12" y="82" width="31" height="24" style="color: rgb(0, 0, 0);" class=""/></g></g></svg>