<svg xmlns="http://www.w3.org/2000/svg" xmlns:xlink="http://www.w3.org/1999/xlink" version="1.1" width="573.698974609375" height="573.698974609375" style="" xml:space="preserve"><rect id="backgroundrect" width="100%" height="100%" x="0" y="0" fill="none" stroke="none"/>

<g class="currentLayer" style=""><title>Layer 1</title>
	
		
		
	
<g class=""><path d="M344.25,401.699V57.4c0-32.5-24.9-57.4-57.4-57.4c-32.5,0-57.4,26.8-57.4,57.4v344.2c-23,17.201-38.2,45.9-38.2,76.5    c0,53.5,42.1,95.6,95.6,95.6c53.5,0,95.599-42.1,95.599-95.6C382.449,447.5,367.15,418.9,344.25,401.699z M286.85,554.699    c-42.1,0-76.5-34.398-76.5-76.5c0-28.699,15.3-53.5,38.2-66.898V57.4c0-21,17.2-38.2,38.2-38.2s38.199,17.2,38.199,38.2v353.799    c23,13.4,38.201,38.201,38.201,66.9C363.35,520.199,328.949,554.699,286.85,554.699z" id="svg_4" class=""/><path fill="#ff0000" fill-opacity="1" stroke="none" stroke-opacity="1" stroke-width="1" stroke-dasharray="none" stroke-linejoin="miter" stroke-linecap="butt" stroke-dashoffset="" fill-rule="nonzero" opacity="1" marker-start="" marker-mid="" marker-end="" d="M227.76920673914955,475.2948686017182 C227.76920673914955,443.4277490800198 253.68484611354774,417.6153822674441 285.67946262515056,417.6153822674441 C317.6740791367533,417.6153822674441 343.58971851115155,443.4277490800198 343.58971851115155,475.2948686017182 C343.58971851115155,507.16198812341656 317.6740791367533,532.9743549359922 285.67946262515056,532.9743549359922 C253.68484611354774,532.9743549359922 227.76920673914955,507.16198812341656 227.76920673914955,475.2948686017182 z" id="svg_1" class=""/><path fill="#ff0000" fill-opacity="1" stroke="none" stroke-opacity="1" stroke-width="1" stroke-dasharray="none" stroke-linejoin="miter" stroke-linecap="butt" stroke-dashoffset="" fill-rule="nonzero" opacity="1" marker-start="" marker-mid="" marker-end="" d="M267.12819717092793,102.1538471503136 C267.12819717092793,92.09576553922827 275.51047535013225,83.94871943424914 285.8589669293968,83.94871943424914 C296.2074585086613,83.94871943424914 304.58973668786564,92.09576553922827 304.58973668786564,102.1538471503136 C304.58973668786564,112.21192876139892 296.2074585086613,120.35897486637805 285.8589669293968,120.35897486637805 C275.51047535013225,120.35897486637805 267.12819717092793,112.21192876139892 267.12819717092793,102.1538471503136 z" id="svg_5" class=""/><rect fill="#ff0000" stroke-dashoffset="" fill-rule="nonzero" id="svg_7" x="267.2051055431366" y="99.5641143321991" width="37.51282501220703" height="334.1025390625" style="color: rgb(255, 0, 0);" class=""/></g></g></svg>