<svg xmlns="http://www.w3.org/2000/svg" xmlns:xlink="http://www.w3.org/1999/xlink" version="1.1" width="573.698974609375" height="573.698974609375" style="" xml:space="preserve"><rect id="backgroundrect" width="100%" height="100%" x="0" y="0" fill="none" stroke="none"/>

<g class="currentLayer" style=""><title>Layer 1</title>
	
		
		
	
<g class="selected"><path d="M344.25,401.699V57.4c0-32.5-24.9-57.4-57.4-57.4c-32.5,0-57.4,26.8-57.4,57.4v344.2c-23,17.201-38.2,45.9-38.2,76.5    c0,53.5,42.1,95.6,95.6,95.6c53.5,0,95.599-42.1,95.599-95.6C382.449,447.5,367.15,418.9,344.25,401.699z M286.85,554.699    c-42.1,0-76.5-34.398-76.5-76.5c0-28.699,15.3-53.5,38.2-66.898V57.4c0-21,17.2-38.2,38.2-38.2s38.199,17.2,38.199,38.2v353.799    c23,13.4,38.201,38.201,38.201,66.9C363.35,520.199,328.949,554.699,286.85,554.699z" id="svg_4" class=""/><g class=""><path fill="#007fff" fill-opacity="1" stroke="none" stroke-opacity="1" stroke-width="1" stroke-dasharray="none" stroke-linejoin="miter" stroke-linecap="butt" stroke-dashoffset="" fill-rule="nonzero" opacity="1" marker-start="" marker-mid="" marker-end="" d="M227.56409521591976,477.60256755682417 C227.56409521591976,445.65044873115113 253.6805420284283,419.769232482356 285.92306895745116,419.769232482356 C318.16559588647397,419.769232482356 344.28204269898254,445.65044873115113 344.28204269898254,477.60256755682417 C344.28204269898254,509.55468638249715 318.16559588647397,535.4359026312923 285.92306895745116,535.4359026312923 C253.6805420284283,535.4359026312923 227.56409521591976,509.55468638249715 227.56409521591976,477.60256755682417 z" id="svg_2" class=""/><g class=""><path fill="#007fff" fill-opacity="1" stroke="none" stroke-opacity="1" stroke-width="1" stroke-dasharray="none" stroke-linejoin="miter" stroke-linecap="butt" stroke-dashoffset="" fill-rule="nonzero" opacity="1" marker-start="" marker-mid="" marker-end="" d="M268.5897369406664,310.43588052072494 C268.5897369406664,302.75773955070395 276.41549170171453,296.53844536498696 286.0769173326383,296.53844536498696 C295.738342963562,296.53844536498696 303.5640977246102,302.75773955070395 303.5640977246102,310.43588052072494 C303.5640977246102,318.114021490746 295.738342963562,324.333315676463 286.0769173326383,324.333315676463 C276.41549170171453,324.333315676463 268.5897369406664,318.114021490746 268.5897369406664,310.43588052072494 z" id="svg_6" class=""/><rect fill="#007fff" stroke-dashoffset="" fill-rule="nonzero" id="svg_9" x="268.51281785964966" y="311.2307686175402" width="35.102560991052556" height="132.15384924411774" style="color: rgb(0, 127, 255);" class=""/></g></g></g></g></svg>