<?xml version="1.0" encoding="UTF-8" standalone="no"?>
<svg
   xmlns:dc="http://purl.org/dc/elements/1.1/"
   xmlns:cc="http://creativecommons.org/ns#"
   xmlns:rdf="http://www.w3.org/1999/02/22-rdf-syntax-ns#"
   xmlns:svg="http://www.w3.org/2000/svg"
   xmlns="http://www.w3.org/2000/svg"
   viewBox="0 0 332.52861 111.6926"
   height="111.6926"
   width="332.52863"
   xml:space="preserve"
   version="1.1"
   id="svg2"><metadata
     id="metadata8"><rdf:RDF><cc:Work
         rdf:about=""><dc:format>image/svg+xml</dc:format><dc:type
           rdf:resource="http://purl.org/dc/dcmitype/StillImage" /><dc:title></dc:title></cc:Work></rdf:RDF></metadata><defs
     id="defs6"><clipPath
       id="clipPath16"
       clipPathUnits="userSpaceOnUse"><path
         id="path18"
         d="m 0,595.28 841.89,0 L 841.89,0 0,0 0,595.28 Z" /></clipPath><clipPath
       id="clipPath124"
       clipPathUnits="userSpaceOnUse"><path
         id="path126"
         d="m 348.632,276.547 c 0,-20.285 16.445,-36.729 36.73,-36.729 l 0,0 c 20.285,0 36.731,16.444 36.731,36.729 l 0,0 c 0,20.286 -16.446,36.729 -36.731,36.729 l 0,0 c -20.285,0 -36.73,-16.443 -36.73,-36.729" /></clipPath><clipPath
       id="clipPath180"
       clipPathUnits="userSpaceOnUse"><path
         id="path182"
         d="m 0,595.28 841.89,0 L 841.89,0 0,0 0,595.28 Z" /></clipPath></defs><g
     transform="matrix(1.25,0,0,-1.25,-359.91712,181.29585)"
     id="g10"><g
       id="g12"><path
         id="path22"
         style="fill:#ffffff;fill-opacity:1;fill-rule:nonzero;stroke:none"
         d="m 405.626,55.6826 c -1.078,0 -1.982,0.815 -2.092,1.89 l -7.013,69.456 -8.307,-50.13 c -0.169,-1.019 -1.045,-1.764 -2.086,-1.757 -1.033,0.006 -1.908,0.762 -2.064,1.783 l -4.426,28.872 -2.243,-10.025 c -0.215,-0.961 -1.066,-1.643 -2.05,-1.644 l -34.235,-0.02 -0.001,0 c -1.16,0 -2.101,0.94 -2.101,2.101 -10e-4,1.16 0.939,2.102 2.099,2.102 l 32.554,0.019 4.313,19.276 c 0.22,0.986 1.108,1.679 2.122,1.64 1.01,-0.034 1.852,-0.783 2.006,-1.781 l 4.12,-26.879 8.73,52.695 c 0.172,1.038 1.096,1.765 2.141,1.756 1.053,-0.035 1.918,-0.841 2.023,-1.889 l 6.415,-63.515 1.65,17.875 c 0.099,1.081 1.006,1.909 2.092,1.909 l 51.74,0 c 1.161,0 2.101,-0.941 2.101,-2.101 0,-1.161 -0.94,-2.102 -2.101,-2.102 l -49.824,0 -3.47,-37.623 c -0.1,-1.077 -1.001,-1.903 -2.084,-1.908 l -0.009,0 z" /><g
         id="g24"
         transform="translate(289.4287,106.0781)"><path
           d="m 0,0 c -0.404,0 -0.753,0.148 -1.05,0.445 -0.297,0.297 -0.445,0.67 -0.445,1.121 l 0,21.779 c 0,0.45 0.148,0.83 0.445,1.137 0.297,0.309 0.646,0.464 1.05,0.464 l 4.803,0 c 0.403,0 0.753,-0.155 1.051,-0.464 0.295,-0.307 0.444,-0.687 0.444,-1.137 l 0,-15.943 9.786,0 c 0.45,0 0.836,-0.143 1.157,-0.427 0.319,-0.285 0.48,-0.64 0.48,-1.068 l 0,-4.482 c 0,-0.404 -0.161,-0.748 -0.48,-1.033 -0.321,-0.284 -0.707,-0.427 -1.157,-0.427 l -15.16,0 L 0,0 Z"
           style="fill:#ffffff;fill-opacity:1;fill-rule:nonzero;stroke:none"
           id="path26" /></g><g
         id="g28"
         transform="translate(311.4194,107.6084)"><path
           d="m 0,0 0,21.707 c 0,0.45 0.142,0.836 0.427,1.156 0.285,0.322 0.664,0.482 1.139,0.482 l 4.875,0 c 0.427,0 0.789,-0.16 1.085,-0.482 0.296,-0.32 0.445,-0.706 0.445,-1.156 L 7.971,0 C 7.971,-0.498 7.822,-0.896 7.526,-1.191 7.23,-1.488 6.868,-1.637 6.441,-1.637 l -4.875,0 c -0.475,0 -0.854,0.149 -1.139,0.446 C 0.142,-0.896 0,-0.498 0,0"
           style="fill:#ffffff;fill-opacity:1;fill-rule:nonzero;stroke:none"
           id="path30" /></g><g
         id="g32"
         transform="translate(344.228,129.1377)"><path
           d="M 0,0 0,-3.203 C 0,-3.629 -0.148,-4.01 -0.445,-4.342 -0.742,-4.674 -1.08,-4.84 -1.458,-4.84 l -10.392,0 0,-2.989 9.892,0 c 0.38,0 0.713,-0.143 0.997,-0.428 0.285,-0.282 0.428,-0.663 0.428,-1.137 l 0,-3.203 c 0,-0.427 -0.143,-0.807 -0.428,-1.138 -0.284,-0.333 -0.617,-0.499 -0.997,-0.499 l -9.892,0 0,-7.224 c 0,-0.427 -0.154,-0.807 -0.462,-1.139 -0.309,-0.332 -0.653,-0.498 -1.032,-0.498 l -4.661,0 c -0.404,0 -0.754,0.166 -1.051,0.498 -0.297,0.332 -0.444,0.712 -0.444,1.139 l 0,18.255 0,3.203 0,0.036 c 0,0.449 0.143,0.818 0.427,1.104 0.284,0.283 0.64,0.425 1.068,0.425 l 16.547,0 c 0.378,0 0.716,-0.148 1.013,-0.445 C -0.148,0.823 0,0.45 0,0"
           style="fill:#ffffff;fill-opacity:1;fill-rule:nonzero;stroke:none"
           id="path34" /></g><g
         id="g36"
         transform="translate(356.2559,124.583)"><path
           d="m 0,0 0,-2.883 10.035,0 c 0.379,0 0.717,-0.149 1.014,-0.444 0.296,-0.297 0.445,-0.67 0.445,-1.122 l 0,-3.095 c 0,-0.403 -0.149,-0.766 -0.445,-1.086 -0.297,-0.319 -0.635,-0.48 -1.014,-0.48 l -10.035,0 0,-3.167 10.534,0 c 0.402,0 0.752,-0.149 1.049,-0.446 0.296,-0.296 0.445,-0.68 0.445,-1.156 l 0,-3.059 c 0,-0.427 -0.149,-0.8 -0.445,-1.122 -0.297,-0.32 -0.647,-0.48 -1.049,-0.48 l -16.797,0 c -0.403,0 -0.753,0.16 -1.049,0.48 -0.297,0.322 -0.445,0.695 -0.445,1.122 l 0,0.107 0,2.952 0,15.443 0,3.097 c 0,0.45 0.148,0.824 0.445,1.122 0.296,0.296 0.646,0.444 1.049,0.444 l 16.797,0 c 0.402,0 0.752,-0.148 1.049,-0.444 0.296,-0.298 0.445,-0.672 0.445,-1.122 l 0,-3.097 C 12.028,1.161 11.874,0.801 11.565,0.479 11.257,0.159 10.913,0 10.534,0 L 0,0 Z"
           style="fill:#ffffff;fill-opacity:1;fill-rule:nonzero;stroke:none"
           id="path38" /></g><g
         id="g40"
         transform="translate(416.5166,76.4883)"><path
           d="m 0,0 c 0,2.42 0.569,4.632 1.709,6.637 1.137,2.004 2.68,3.581 4.625,4.733 1.945,1.15 4.057,1.724 6.334,1.724 0.45,0 0.795,-0.012 1.032,-0.034 1.376,-0.096 2.444,-0.249 3.202,-0.463 l 0.179,-0.035 c 0.261,-0.025 0.462,-0.12 0.605,-0.286 0.142,-0.166 0.213,-0.38 0.213,-0.64 0,-0.238 -0.047,-0.462 -0.143,-0.676 L 16.298,7.65 C 15.918,6.677 15.35,6.191 14.59,6.191 12.645,6.191 11.072,5.788 9.875,4.98 8.678,4.175 7.9,2.977 7.543,1.387 7.425,0.842 7.366,0.355 7.366,-0.072 c 0,-1.257 0.349,-2.383 1.05,-3.38 0.699,-0.995 1.761,-1.673 3.185,-2.028 0.758,-0.142 1.434,-0.213 2.028,-0.213 1.494,0 2.686,0.361 3.576,1.085 0.891,0.723 1.465,1.641 1.727,2.757 l -1.994,0 c -0.379,0 -0.688,0.125 -0.924,0.374 -0.239,0.249 -0.358,0.563 -0.358,0.943 l 0,4.662 c 0,0.355 0.125,0.663 0.375,0.924 0.249,0.261 0.551,0.392 0.907,0.392 l 8.291,0 c 0.404,0 0.736,-0.124 0.997,-0.373 0.26,-0.25 0.391,-0.564 0.391,-0.943 l -0.07,-2.562 c -0.025,-0.285 -0.054,-0.79 -0.09,-1.513 -0.035,-0.723 -0.089,-1.394 -0.16,-2.01 -0.213,-2.088 -0.938,-3.98 -2.17,-5.677 -1.234,-1.695 -2.8,-3.03 -4.697,-4.003 -1.899,-0.971 -3.892,-1.458 -5.979,-1.458 -2.325,0 -4.519,0.587 -6.583,1.761 -2.064,1.175 -3.725,2.769 -4.981,4.786 C 0.628,-4.532 0,-2.349 0,0"
           style="fill:#ffffff;fill-opacity:1;fill-rule:nonzero;stroke:none"
           id="path42" /></g><g
         id="g44"
         transform="translate(457.6172,74.6377)"><path
           d="M 0,0 2.313,0 -0.499,8.362 -3.274,0 0,0 Z m -13.665,-9.181 c 0,0.403 0.066,0.801 0.195,1.193 0.131,0.389 0.208,0.61 0.233,0.658 l 7.9,20.034 c 0.213,0.497 0.526,0.883 0.942,1.155 0.416,0.273 0.908,0.422 1.477,0.446 l 2.918,0 2.206,0 c 0.617,-0.024 1.127,-0.191 1.53,-0.497 0.404,-0.31 0.677,-0.677 0.819,-1.104 L 12.526,-7.33 c 0.024,-0.12 0.095,-0.362 0.213,-0.73 0.119,-0.369 0.178,-0.718 0.178,-1.05 0,-0.854 -0.475,-1.352 -1.423,-1.494 l -4.875,0 c -0.499,0 -0.921,0.088 -1.265,0.267 -0.342,0.177 -0.563,0.432 -0.658,0.764 l -1.102,3.559 -7.935,0 -1.103,-3.559 c -0.096,-0.332 -0.309,-0.587 -0.641,-0.764 -0.333,-0.179 -0.747,-0.267 -1.246,-0.267 l -4.945,0 c -0.926,0.142 -1.389,0.616 -1.389,1.423"
           style="fill:#ffffff;fill-opacity:1;fill-rule:nonzero;stroke:none"
           id="path46" /></g><g
         id="g48"
         transform="translate(473.8096,65.3145)"><path
           d="m 0,0 0,22.383 c 0,0.333 0.123,0.623 0.373,0.871 0.249,0.25 0.551,0.374 0.907,0.374 l 5.516,0 c 0.237,0 0.485,-0.053 0.747,-0.16 0.261,-0.107 0.437,-0.219 0.533,-0.337 l 6.619,-7.261 6.94,7.224 c 0.285,0.26 0.598,0.416 0.943,0.464 0.344,0.046 0.752,0.07 1.228,0.07 l 4.802,0 c 0.333,0 0.623,-0.124 0.872,-0.374 0.249,-0.248 0.374,-0.538 0.374,-0.871 L 29.854,0 c 0,-0.355 -0.119,-0.658 -0.356,-0.908 -0.236,-0.249 -0.533,-0.373 -0.89,-0.373 l -4.768,0 c -0.356,0 -0.67,0.124 -0.942,0.373 -0.273,0.25 -0.41,0.553 -0.41,0.908 l 0,13.096 -5.728,-7.26 C 16.285,5.195 15.68,4.875 14.943,4.875 14.589,4.875 14.251,4.952 13.93,5.106 13.61,5.26 13.355,5.469 13.164,5.729 L 7.294,13.096 7.33,0 C 7.33,-0.355 7.21,-0.658 6.973,-0.908 6.736,-1.157 6.439,-1.281 6.084,-1.281 l -4.804,0 c -0.356,0 -0.658,0.131 -0.907,0.392 C 0.123,-0.629 0,-0.332 0,0"
           style="fill:#ffffff;fill-opacity:1;fill-rule:nonzero;stroke:none"
           id="path50" /></g><g
         id="g52"
         transform="translate(515.9404,82.5723)"><path
           d="m 0,0 0,-2.882 10.035,0 c 0.378,0 0.717,-0.148 1.014,-0.445 0.296,-0.297 0.445,-0.67 0.445,-1.12 l 0,-3.097 c 0,-0.403 -0.149,-0.764 -0.445,-1.084 -0.297,-0.321 -0.636,-0.481 -1.014,-0.481 l -10.035,0 0,-3.167 10.533,0 c 0.403,0 0.753,-0.149 1.049,-0.445 0.297,-0.297 0.445,-0.682 0.445,-1.157 l 0,-3.059 c 0,-0.428 -0.148,-0.801 -0.445,-1.122 -0.296,-0.32 -0.646,-0.48 -1.049,-0.48 l -16.797,0 c -0.403,0 -0.753,0.16 -1.049,0.48 -0.297,0.321 -0.444,0.694 -0.444,1.122 l 0,0.107 0,2.952 0,15.444 0,3.096 c 0,0.451 0.147,0.824 0.444,1.121 0.296,0.297 0.646,0.446 1.049,0.446 l 16.797,0 c 0.403,0 0.753,-0.149 1.049,-0.446 0.297,-0.297 0.445,-0.67 0.445,-1.121 l 0,-3.096 C 12.027,1.163 11.873,0.801 11.565,0.481 11.256,0.161 10.912,0 10.533,0 L 0,0 Z"
           style="fill:#ffffff;fill-opacity:1;fill-rule:nonzero;stroke:none"
           id="path54" /></g><g
         id="g56"
         transform="translate(541.1348,77.3066)"><path
           d="m 0,0 c 1.091,0 2.093,0.195 3.007,0.588 0.912,0.391 1.37,1.297 1.37,2.722 0,0.995 -0.303,1.753 -0.908,2.277 C 2.864,6.107 1.992,6.37 0.854,6.37 l -2.918,0 0,-0.356 0,-6.014 0.249,0 0.107,0 L 0,0 Z m 5.301,-11.139 c -0.26,1.614 -0.8,2.734 -1.618,3.364 -0.819,0.627 -1.832,1.002 -3.042,1.121 -0.167,0.022 -0.369,0.035 -0.607,0.035 -0.235,0 -0.438,-0.024 -0.603,-0.071 l -0.036,-0.036 0,-4.553 c 0,-0.453 -0.041,-0.815 -0.124,-1.087 -0.085,-0.273 -0.31,-0.498 -0.677,-0.676 -0.368,-0.179 -0.943,-0.267 -1.726,-0.267 l -3.309,0 c -0.736,-0.023 -1.317,0.113 -1.745,0.409 -0.426,0.296 -0.64,0.706 -0.64,1.228 l 0.036,9.608 0,12.382 c 0,0.357 0.178,0.671 0.533,0.944 0.357,0.273 0.783,0.41 1.282,0.41 l 8.078,0 C 4.661,11.695 7.294,11.097 9.002,9.874 10.711,8.652 11.636,6.736 11.778,4.128 11.801,3.891 11.808,3.707 11.796,3.575 11.783,3.445 11.778,3.332 11.778,3.238 l 0,-0.747 C 11.658,1.115 11.298,0.023 10.692,-0.783 10.089,-1.589 9.287,-2.338 8.291,-3.025 l 0.036,-0.036 c 1.162,-0.569 2.086,-1.387 2.775,-2.456 0.688,-1.066 1.156,-2.182 1.406,-3.343 0.248,-1.163 0.349,-2.207 0.303,-3.132 0,-0.404 -0.143,-0.725 -0.428,-0.961 -0.285,-0.237 -0.689,-0.356 -1.21,-0.356 l -4.342,0 c -0.617,0 -1.014,0.155 -1.19,0.462 -0.18,0.31 -0.274,0.635 -0.286,0.98 -0.012,0.343 -0.03,0.588 -0.054,0.728"
           style="fill:#ffffff;fill-opacity:1;fill-rule:nonzero;stroke:none"
           id="path58" /></g></g></g></svg>
